<?xml version="1.0" encoding="utf-8"?>
<!-- Generator: Adobe Illustrator 22.1.0, SVG Export Plug-In . SVG Version: 6.00 Build 0)  -->
<svg version="1.1" id="Capa_1" xmlns="http://www.w3.org/2000/svg" xmlns:xlink="http://www.w3.org/1999/xlink" x="0px" y="0px"
	 viewBox="0 0 112.2 112.2" style="enable-background:new 0 0 112.2 112.2;" xml:space="preserve">
<style type="text/css">
	.st0{fill:#CEB449;}
	.st1{fill:#FFFFFF;}
</style>
<g>
	<circle class="st0" cx="56.1" cy="56.1" r="56.1"/>
</g>
<g>
	<path class="st1" d="M82.4,81.3c1.4,0,2.7-0.5,3.7-1.4L68.2,61.9c-0.4,0.3-0.8,0.6-1.2,0.9c-1.3,1-2.4,1.8-3.3,2.3
		c-0.8,0.6-1.9,1.1-3.3,1.7c-1.4,0.6-2.7,0.9-3.9,0.9h0h0c-1.2,0-2.5-0.3-3.9-0.9c-1.4-0.6-2.5-1.1-3.3-1.7
		c-0.8-0.6-1.9-1.3-3.3-2.3c-0.4-0.3-0.8-0.6-1.2-0.9L26.7,79.9c1,0.9,2.3,1.4,3.7,1.4L82.4,81.3z"/>
	<path class="st1" d="M28.3,50.6c-1.3-0.9-2.5-1.9-3.6-3.1l0,27.3L40.6,59C37.4,56.8,33.3,54,28.3,50.6z"/>
	<path class="st1" d="M84.5,50.6c-4.8,3.3-8.9,6.1-12.3,8.4l15.8,15.8l0-27.3C87,48.7,85.9,49.7,84.5,50.6z"/>
	<path class="st1" d="M82.4,31.5l-52,0c-1.8,0-3.2,0.6-4.2,1.8c-1,1.2-1.5,2.8-1.5,4.6c0,1.5,0.6,3.1,1.9,4.8
		c1.3,1.7,2.7,3.1,4.1,4.1c0.8,0.6,3.2,2.2,7.2,5c2.2,1.5,4.1,2.8,5.7,4c1.4,1,2.6,1.8,3.6,2.5c0.1,0.1,0.3,0.2,0.5,0.4
		c0.3,0.2,0.6,0.4,1,0.7c0.8,0.6,1.4,1,1.9,1.3c0.5,0.3,1.1,0.7,1.8,1.1c0.7,0.4,1.4,0.7,2,1c0.6,0.2,1.2,0.3,1.8,0.3h0h0
		c0.5,0,1.1-0.1,1.8-0.3c0.6-0.2,1.3-0.5,2-1c0.7-0.4,1.3-0.8,1.8-1.1c0.5-0.3,1.1-0.8,1.9-1.3c0.4-0.3,0.7-0.5,1-0.7
		c0.2-0.2,0.4-0.3,0.5-0.4c0.8-0.5,2-1.4,3.6-2.5c2.9-2,7.2-5,13-9c1.7-1.2,3.2-2.6,4.3-4.3c1.2-1.7,1.7-3.5,1.7-5.3
		c0-1.6-0.6-2.9-1.7-4C85.3,32.1,83.9,31.5,82.4,31.5z"/>
</g>
</svg>
